Coordinates
version=1
nRows=12
nColumns=24
inDegrees=yes

Units are S.I. units (second, meters, Newtons, ...)
Angles are in degrees.

endheader
time	pelvis_tilt	pelvis_list	pelvis_rotation	pelvis_tx	pelvis_ty	pelvis_tz	hip_flexion_r	hip_adduction_r	hip_rotation_r	knee_angle_r	ankle_angle_r	subtalar_angle_r	mtp_angle_r	hip_flexion_l	hip_adduction_l	hip_rotation_l	knee_angle_l	ankle_angle_l	subtalar_angle_l	mtp_angle_l	lumbar_extension	lumbar_bending	lumbar_rotation
      1.70500000	     -6.63672527	      3.59445910	    358.03812370	     -0.29322969	      1.38784228	     -1.04169850	     29.01011760	     -1.73489401	      4.85146688	    -19.37836073	     -1.38311656	     -6.83401829	     10.13187273	      4.32873062	      7.95774653	      5.08562871	     -8.71030827	      4.28569333	     -4.22175060	     14.84892140	     -8.61817600	      1.88206409	      8.14573688
      1.71000000	     -6.70255360	      3.69430818	    358.14240336	     -0.28835130	      1.38709392	     -1.04150295	     28.87297916	     -1.92651325	      5.13149342	    -17.44517562	     -1.90249360	     -6.95821919	     10.20675109	      4.06386294	      8.07214480	      5.20980996	     -8.66889042	      4.55414562	     -4.17500235	     14.72961153	     -8.55623286	      1.79941563	      8.05385619
      1.71500000	     -6.82371374	      3.80052563	    358.27900178	     -0.28343217	      1.38624731	     -1.04137171	     28.78282639	     -2.15105673	      5.38102481	    -15.53124572	     -2.33339002	     -7.02254569	     10.20214815	      3.86398489	      8.19855051	      5.40315509	     -8.64262072	      4.83477446	     -4.18193728	     14.66976162	     -8.41590377	      1.70925562	      7.98953237
      1.72000000	     -6.86775284	      3.91916691	    358.37901052	     -0.27853604	      1.38545847	     -1.04116721	     28.59275017	     -2.37889991	      5.71560853	    -13.60253860	     -2.85798675	     -7.19982064	     10.39501390	      3.57110016	      8.33294612	      5.51993188	     -8.59614341	      5.07121062	     -4.15578282	     14.47797135	     -8.39213255	      1.62132039	      7.85721460
      1.72500000	     -6.95690391	      4.04048712	    358.51801774	     -0.27360371	      1.38457488	     -1.04104067	     28.44299789	     -2.64076474	      5.99867102	    -11.71263121	     -3.28949992	     -7.31342151	     10.53451064	      3.33499150	      8.47721353	      5.71812164	     -8.57489530	      5.33028950	     -4.17587511	     14.33142657	     -8.29938301	      1.52669055	      7.75771180
      1.73000000	     -7.05245463	      4.16882189	    358.67976464	     -0.26863609	      1.38364844	     -1.04095669	     28.29403467	     -2.93119401	      6.24938045	     -9.87149203	     -3.64658229	     -7.38309876	     10.61648622	      3.10675848	      8.63293739	      5.96324337	     -8.56348524	      5.58546306	     -4.22409276	     14.21147816	     -8.19786999	      1.42967053	      7.65016004
      1.73500000	     -7.16225097	      4.31500956	    358.83913646	     -0.26361164	      1.38266023	     -1.04085757	     28.17200040	     -3.24348826	      6.44144192	     -8.11152507	     -3.95520448	     -7.39094757	     10.66119132	      2.88034126	      8.80568589	      6.19993957	     -8.53018305	      5.83840257	     -4.29499896	     14.10488077	     -8.06262880	      1.30963971	      7.55598078
      1.74000000	     -7.23565906	      4.47703868	    358.99745251	     -0.25863044	      1.38167778	     -1.04073963	     28.02497769	     -3.57471094	      6.64497851	     -6.43328507	     -4.26274234	     -7.42267298	     10.80684307	      2.62219522	      8.99671732	      6.44780629	     -8.51479259	      6.04696969	     -4.39506453	     13.86714412	     -7.99705946	      1.18913280	      7.37452325
      1.74500000	     -7.33504994	      4.62538618	    359.17421281	     -0.25358833	      1.38064475	     -1.04065558	     27.92353535	     -3.90078769	      6.75308617	     -4.88078247	     -4.44554246	     -7.35388866	     10.84414254	      2.39106023	      9.17299085	      6.73321831	     -8.50802874	      6.28650802	     -4.48060022	     13.72625556	     -7.88184998	      1.07315223	      7.26643272
      1.75000000	     -7.41025956	      4.78076917	    359.34782556	     -0.24854202	      1.37961728	     -1.04053450	     27.82386255	     -4.22630124	      6.79340720	     -3.46358959	     -4.57358679	     -7.24189206	     10.85726139	      2.12616082	      9.35379715	      7.01888362	     -8.48998577	      6.50780364	     -4.59443386	     13.54136615	     -7.80086325	      0.95289256	      7.12492482
      1.75500000	     -7.49447708	      4.92648857	    359.51872874	     -0.24345803	      1.37856735	     -1.04037237	     27.76681853	     -4.52680337	      6.75646932	     -2.20449828	     -4.62444214	     -7.10248759	     10.82485263	      1.86797909	      9.51865537	      7.30107537	     -8.47281801	      6.74731890	     -4.68393604	     13.42979686	     -7.69265173	      0.82496241	      7.03583792
      1.76000000	     -7.52761860	      5.04904487	    359.69110602	     -0.23836527	      1.37760165	     -1.04020780	     27.67490424	     -4.79881517	      6.64363575	     -1.08905746	     -4.60996807	     -6.85694903	     10.78363199	      1.54875533	      9.65808167	      7.60770133	     -8.45269490	      6.94373248	     -4.82077038	     13.16505301	     -7.66330157	      0.75660784	      6.84628087
